<svg xmlns="http://www.w3.org/2000/svg" xmlns:xlink="http://www.w3.org/1999/xlink" viewBox="0 0 216.08 40.24"><defs><style>.cls-1{fill:#fff;}.cls-2{fill:url(#coonnecta_red);}.cls-3{fill:url(#coonnecta_red-2);}</style><linearGradient id="coonnecta_red" x1="11.74" y1="14.25" x2="40.24" y2="14.25" gradientUnits="userSpaceOnUse"><stop offset="0" stop-color="#ba1622"></stop><stop offset="0.79" stop-color="#9f195b"></stop></linearGradient><linearGradient id="coonnecta_red-2" x1="0" y1="21.38" x2="37.73" y2="21.38" xlink:href="#coonnecta_red"></linearGradient></defs><g id="home"><path class="cls-1" d="M55.34,34l2.3,1.25a1.28,1.28,0,0,1,.29,2,10.74,10.74,0,0,1-2.44,1.81,9.85,9.85,0,0,1-9.8-.28,10.91,10.91,0,0,1-5.09-9.32,11,11,0,0,1,3-7.65,10.35,10.35,0,0,1,3.27-2.33,9.71,9.71,0,0,1,4-.83,9.49,9.49,0,0,1,4.65,1.16A10.72,10.72,0,0,1,58,21.67a1.28,1.28,0,0,1-.31,2l-2.31,1.24a1.26,1.26,0,0,1-1.41-.16,5,5,0,0,0-1.08-.68,4.7,4.7,0,0,0-2-.45,4.61,4.61,0,0,0-2.66.81,5.78,5.78,0,0,0-1.88,2.13,6.23,6.23,0,0,0,0,5.74,5.75,5.75,0,0,0,1.88,2.12,4.84,4.84,0,0,0,4.71.33,5.36,5.36,0,0,0,1-.65A1.29,1.29,0,0,1,55.34,34Z"></path><path class="cls-1" d="M68.91,40.24a9.49,9.49,0,0,1-5.15-1.45,10.85,10.85,0,0,1-5.09-9.32,11,11,0,0,1,3-7.65,10.13,10.13,0,0,1,3.27-2.33,9.67,9.67,0,0,1,4-.83,9.52,9.52,0,0,1,5.15,1.45A10.8,10.8,0,0,1,77.77,24a11.4,11.4,0,0,1,.58,9.63,11.19,11.19,0,0,1-2.2,3.43,10.28,10.28,0,0,1-3.26,2.32A9.5,9.5,0,0,1,68.91,40.24Zm0-5a4.71,4.71,0,0,0,2.68-.79,5.69,5.69,0,0,0,1.87-2.11,6.08,6.08,0,0,0,.69-2.87,6,6,0,0,0-.71-2.92,5.69,5.69,0,0,0-1.9-2.11,4.75,4.75,0,0,0-2.63-.79,4.68,4.68,0,0,0-2.66.8,5.65,5.65,0,0,0-1.89,2.13,6.19,6.19,0,0,0-.69,2.89,6,6,0,0,0,.71,2.93,5.74,5.74,0,0,0,1.92,2.08A4.76,4.76,0,0,0,68.91,35.24Z"></path><path class="cls-1" d="M89.39,40.24a9.49,9.49,0,0,1-5.15-1.45,10.85,10.85,0,0,1-5.09-9.32,11.07,11.07,0,0,1,.8-4.21,10.94,10.94,0,0,1,2.2-3.44,10.13,10.13,0,0,1,3.27-2.33,9.67,9.67,0,0,1,4-.83,9.52,9.52,0,0,1,5.15,1.45A10.72,10.72,0,0,1,98.25,24a11.4,11.4,0,0,1,.58,9.63,11.19,11.19,0,0,1-2.2,3.43,10.28,10.28,0,0,1-3.26,2.32A9.5,9.5,0,0,1,89.39,40.24Zm0-5a4.69,4.69,0,0,0,2.68-.79A5.8,5.8,0,0,0,94,32.34a6.2,6.2,0,0,0,.68-2.87,6.09,6.09,0,0,0-.7-2.92A5.81,5.81,0,0,0,92,24.44a4.75,4.75,0,0,0-2.63-.79,4.68,4.68,0,0,0-2.66.8,5.65,5.65,0,0,0-1.89,2.13,6.19,6.19,0,0,0-.69,2.89,6,6,0,0,0,.71,2.93,5.74,5.74,0,0,0,1.92,2.08A4.76,4.76,0,0,0,89.39,35.24Z"></path><path class="cls-1" d="M120.34,29.12v9.31a1.28,1.28,0,0,1-1.28,1.28h-2.44a1.28,1.28,0,0,1-1.28-1.28V29.2a6.22,6.22,0,0,0-.66-2.87,5.3,5.3,0,0,0-1.81-2.08,4.66,4.66,0,0,0-2.67-.78,4.25,4.25,0,0,0-2.56.78A5,5,0,0,0,106,26.33a6.88,6.88,0,0,0-.59,2.87v9.23a1.27,1.27,0,0,1-1.27,1.28h-2.44a1.28,1.28,0,0,1-1.28-1.28V20.51a1.28,1.28,0,0,1,1.28-1.28h2.44a1.27,1.27,0,0,1,1.27,1.28v1.14a8,8,0,0,1,2.45-2.19,6.42,6.42,0,0,1,3.23-.8,8.44,8.44,0,0,1,4.9,1.42,9.41,9.41,0,0,1,3.22,3.8A12.24,12.24,0,0,1,120.34,29.12Z"></path><path class="cls-1" d="M142.33,29.12v9.31a1.28,1.28,0,0,1-1.28,1.28h-2.44a1.28,1.28,0,0,1-1.28-1.28V29.2a6.21,6.21,0,0,0-.65-2.87,5.38,5.38,0,0,0-1.81-2.08,4.69,4.69,0,0,0-2.68-.78,4.29,4.29,0,0,0-2.56.78A5.07,5.07,0,0,0,128,26.33a7,7,0,0,0-.58,2.87v9.23a1.28,1.28,0,0,1-1.28,1.28h-2.44a1.28,1.28,0,0,1-1.28-1.28V20.51a1.28,1.28,0,0,1,1.28-1.28h2.44a1.28,1.28,0,0,1,1.28,1.28v1.14a7.86,7.86,0,0,1,2.45-2.19,6.39,6.39,0,0,1,3.22-.8A8.47,8.47,0,0,1,138,20.08a9.39,9.39,0,0,1,3.21,3.8A12.09,12.09,0,0,1,142.33,29.12Z"></path><path class="cls-1" d="M153.08,40.24a9.52,9.52,0,0,1-5.15-1.45,10.95,10.95,0,0,1-5.09-9.34,11,11,0,0,1,.8-4.19,11.12,11.12,0,0,1,2.2-3.44,10.35,10.35,0,0,1,3.27-2.33,9.71,9.71,0,0,1,4-.83,9.53,9.53,0,0,1,4.4,1,10.1,10.1,0,0,1,3.39,2.77,11.54,11.54,0,0,1,2,4,10.8,10.8,0,0,1,.4,3.5A1.28,1.28,0,0,1,162,31.17h-13.8a6,6,0,0,0,.94,2.06,4.82,4.82,0,0,0,3.93,2,4.36,4.36,0,0,0,2.39-.62,5.21,5.21,0,0,0,1.34-1.14,1.26,1.26,0,0,1,1.26-.42l2.63.61a1.29,1.29,0,0,1,.78,2,11,11,0,0,1-2.85,2.87A9.41,9.41,0,0,1,153.08,40.24Zm-5-12.82h10.07a5.37,5.37,0,0,0-1-2.22,5.57,5.57,0,0,0-1.79-1.59,4.72,4.72,0,0,0-2.3-.59,4.57,4.57,0,0,0-2.27.58A5.46,5.46,0,0,0,149,25.18,5.6,5.6,0,0,0,148.05,27.42Z"></path><path class="cls-1" d="M178.06,34l2.3,1.25a1.28,1.28,0,0,1,.29,2,10.53,10.53,0,0,1-2.44,1.81,9.85,9.85,0,0,1-9.8-.28,10.74,10.74,0,0,1-3.7-3.9,10.88,10.88,0,0,1-1.39-5.42,11,11,0,0,1,3-7.65,10.2,10.2,0,0,1,3.26-2.33,9.72,9.72,0,0,1,4-.83,9.48,9.48,0,0,1,4.64,1.16,10.72,10.72,0,0,1,2.46,1.85,1.28,1.28,0,0,1-.3,2l-2.32,1.24a1.26,1.26,0,0,1-1.41-.16,5,5,0,0,0-1.08-.68,4.69,4.69,0,0,0-2-.45,4.62,4.62,0,0,0-2.67.81A5.78,5.78,0,0,0,169,26.59a6.23,6.23,0,0,0,0,5.74,5.75,5.75,0,0,0,1.88,2.12,4.84,4.84,0,0,0,4.71.33,5.36,5.36,0,0,0,1-.65A1.29,1.29,0,0,1,178.06,34Z"></path><path class="cls-1" d="M193.09,24.23H190.4v14.2a1.28,1.28,0,0,1-1.28,1.28h-2.44a1.28,1.28,0,0,1-1.28-1.28V24.23h-1.75A1.28,1.28,0,0,1,182.37,23V20.51a1.28,1.28,0,0,1,1.28-1.28h1.75V14.08a1.28,1.28,0,0,1,1.28-1.28h2.44a1.28,1.28,0,0,1,1.28,1.28v5.15h2.69a1.28,1.28,0,0,1,1.28,1.28V23A1.28,1.28,0,0,1,193.09,24.23Z"></path><path class="cls-1" d="M212.48,19.23h2.32a1.28,1.28,0,0,1,1.28,1.28V38.43a1.28,1.28,0,0,1-1.28,1.28h-2.55A1.28,1.28,0,0,1,211,38.53l-.11-1.36a6.79,6.79,0,0,1-2.24,2.22,6.06,6.06,0,0,1-3.25.85,10.53,10.53,0,0,1-4.26-.86,11.17,11.17,0,0,1-3.5-2.37,10.91,10.91,0,0,1-2.36-3.51,10.79,10.79,0,0,1-.84-4.26,10.64,10.64,0,0,1,.8-4.11,10.39,10.39,0,0,1,2.26-3.38,10.82,10.82,0,0,1,3.35-2.28,10.38,10.38,0,0,1,4.1-.81,7.38,7.38,0,0,1,3.66.9,9.32,9.32,0,0,1,2.73,2.29l-.11-1.23A1.29,1.29,0,0,1,212.48,19.23Zm-7,16.2a4.84,4.84,0,0,0,2.85-.84,5.23,5.23,0,0,0,1.83-2.24,6.39,6.39,0,0,0,.51-3.11,6.51,6.51,0,0,0-.95-2.89,6.25,6.25,0,0,0-2-2.08,5.44,5.44,0,0,0-5.71.06,5.62,5.62,0,0,0-2,2.24,5.82,5.82,0,0,0-.56,3.12,6.21,6.21,0,0,0,1,2.88,6.56,6.56,0,0,0,2.18,2.08A5.46,5.46,0,0,0,205.51,35.43Z"></path><path class="cls-2" d="M40.24,7.12a7.12,7.12,0,0,1-7.13,7.13A7.13,7.13,0,0,0,26,21.38a7.13,7.13,0,1,1-7.12-7.13A7.13,7.13,0,0,0,26,7.12a7.13,7.13,0,0,1,14.25,0Z"></path><path class="cls-3" d="M37.73,21.38A18.87,18.87,0,1,1,18.86,2.51a4.62,4.62,0,0,1,0,9.23,9.64,9.64,0,1,0,9.64,9.64,4.62,4.62,0,0,1,9.23,0Z"></path></g></svg>